<svg xmlns="http://www.w3.org/2000/svg" width="1040" height="1300" viewBox="0 0 1040 1300" role="img">
  <defs>
    <linearGradient id="ground" x1="0.1" y1="0" x2="0.7" y2="1">
      <stop offset="0" stop-color="#EFE9DD"/><stop offset="1" stop-color="#D9CFBE"/>
    </linearGradient>
    <radialGradient id="window" cx="24%" cy="14%" r="70%">
      <stop offset="0" stop-color="#FFFDF8" stop-opacity="0.9"/>
      <stop offset="0.5" stop-color="#FFFDF8" stop-opacity="0.22"/>
      <stop offset="1" stop-color="#FFFDF8" stop-opacity="0"/>
    </radialGradient>
    <radialGradient id="vignette" cx="50%" cy="46%" r="72%">
      <stop offset="0.55" stop-color="#6E6353" stop-opacity="0"/>
      <stop offset="1" stop-color="#6E6353" stop-opacity="0.2"/>
    </radialGradient>
    
    <linearGradient id="m-gold" x1="0.12" y1="0" x2="0.88" y2="1">
      <stop offset="0" stop-color="#F0E3C0"/><stop offset="0.26" stop-color="#C9AA6C"/>
      <stop offset="0.55" stop-color="#96793E"/><stop offset="0.78" stop-color="#C9AA6C"/>
      <stop offset="1" stop-color="#6E5827"/>
    </linearGradient>
    <linearGradient id="m-rose" x1="0.12" y1="0" x2="0.88" y2="1">
      <stop offset="0" stop-color="#F0D5C6"/><stop offset="0.26" stop-color="#C99C89"/>
      <stop offset="0.55" stop-color="#966B58"/><stop offset="0.78" stop-color="#C99C89"/>
      <stop offset="1" stop-color="#6E4C3C"/>
    </linearGradient>
    <linearGradient id="m-platinum" x1="0.12" y1="0" x2="0.88" y2="1">
      <stop offset="0" stop-color="#F6F7F9"/><stop offset="0.26" stop-color="#C6C9CD"/>
      <stop offset="0.55" stop-color="#93969B"/><stop offset="0.78" stop-color="#C6C9CD"/>
      <stop offset="1" stop-color="#6F7276"/>
    </linearGradient>
    <linearGradient id="m-white" x1="0.12" y1="0" x2="0.88" y2="1">
      <stop offset="0" stop-color="#F7F8FA"/><stop offset="0.26" stop-color="#CBCDD1"/>
      <stop offset="0.55" stop-color="#989BA0"/><stop offset="0.78" stop-color="#CBCDD1"/>
      <stop offset="1" stop-color="#74777C"/>
    </linearGradient>
    <linearGradient id="m-graphite" x1="0.12" y1="0" x2="0.88" y2="1">
      <stop offset="0" stop-color="#C6C4BF"/><stop offset="0.26" stop-color="#8E8B85"/>
      <stop offset="0.55" stop-color="#63615C"/><stop offset="0.78" stop-color="#8E8B85"/>
      <stop offset="1" stop-color="#454340"/>
    </linearGradient>
    <linearGradient id="m-wax" x1="0.12" y1="0" x2="0.88" y2="1">
      <stop offset="0" stop-color="#EDE4E2"/><stop offset="0.26" stop-color="#CDBFBD"/>
      <stop offset="0.55" stop-color="#A2938F"/><stop offset="0.78" stop-color="#CDBFBD"/>
      <stop offset="1" stop-color="#7E716D"/>
    </linearGradient>
    <linearGradient id="stone-cool" x1="0.15" y1="0" x2="0.8" y2="1">
      <stop offset="0" stop-color="#DCE4EA"/><stop offset="1" stop-color="#C6D0D8"/>
    </linearGradient>
    <linearGradient id="table-cool" x1="0" y1="0" x2="0.7" y2="1">
      <stop offset="0" stop-color="#FAFCFD"/><stop offset="1" stop-color="#DCE4EA"/>
    </linearGradient>
    <linearGradient id="stone-warm" x1="0.15" y1="0" x2="0.8" y2="1">
      <stop offset="0" stop-color="#E4E1DA"/><stop offset="1" stop-color="#CFCBC1"/>
    </linearGradient>
    <linearGradient id="table-warm" x1="0" y1="0" x2="0.7" y2="1">
      <stop offset="0" stop-color="#FDFCF9"/><stop offset="1" stop-color="#E4E1DA"/>
    </linearGradient>
    <filter id="soft" x="-60%" y="-60%" width="220%" height="220%">
      <feGaussianBlur stdDeviation="12.48"/></filter>
    <filter id="softer" x="-60%" y="-60%" width="220%" height="220%">
      <feGaussianBlur stdDeviation="32.448"/></filter>
    <filter id="grain"><feTurbulence type="fractalNoise" baseFrequency="0.9" numOctaves="3" stitchTiles="stitch"/>
      <feColorMatrix type="saturate" values="0"/></filter>
  
  <linearGradient id="benchtop" x1="0" y1="0" x2="0.2" y2="1">
    <stop offset="0" stop-color="#D6C4A6"/><stop offset="0.5" stop-color="#C7B294"/><stop offset="1" stop-color="#B29B7C"/>
  </linearGradient></defs>
  <rect width="1040" height="1300" fill="url(#ground)"/>
  
  <rect x="31.2" y="-65" width="270.40000000000003" height="1040" fill="#FFFDF6" opacity="0.42"
        filter="url(#softer)" transform="skewX(-8)"/>
  <rect x="187.2" y="-65" width="10.4" height="1040" fill="#8A806E" opacity="0.12"
        filter="url(#soft)" transform="skewX(-8)"/>
  <rect width="1040" height="1300" fill="url(#window)"/>
  
  <rect x="0" y="702" width="1040" height="598" fill="url(#benchtop)"/>
  <rect x="0" y="702" width="1040" height="15.6" fill="#F6EEDF" opacity="0.55"/>
  <rect x="0" y="717.6" width="1040" height="26" fill="#7A6647" opacity="0.13" filter="url(#soft)"/>
  <path d="M 83.2 702 L -104 1300"
           stroke="#7A6647" stroke-opacity="0.05" stroke-width="6.24" fill="none"/><path d="M 312 702 L 207.99999999999997 1300"
           stroke="#7A6647" stroke-opacity="0.05" stroke-width="6.24" fill="none"/><path d="M 540.8000000000001 702 L 520 1300"
           stroke="#7A6647" stroke-opacity="0.05" stroke-width="6.24" fill="none"/><path d="M 769.6 702 L 831.9999999999999 1300"
           stroke="#7A6647" stroke-opacity="0.05" stroke-width="6.24" fill="none"/><path d="M 998.4 702 L 1143.9999999999998 1300"
           stroke="#7A6647" stroke-opacity="0.05" stroke-width="6.24" fill="none"/>
  <rect x="0" y="702" width="1040" height="598" fill="url(#vignette)" opacity="0.35"/>
     <g transform="rotate(-12 83.2 1118)">
    <ellipse cx="279.76" cy="1139.84" rx="192.192" ry="9.6096" fill="#6B6153" opacity="0.16" filter="url(#soft)"/>
    <path d="M 83.2 1104.896 L 520 1116.6896 L 520 1119.3104 L 83.2 1131.104 Z" fill="url(#m-platinum)"/>
    <path d="M 83.2 1104.896 L 520 1116.6896 L 354.016 1115.3792 L 83.2 1116.2528 Z" fill="#F6F7F9" opacity="0.75"/>
    <path d="M 205.50400000000002 1108.8272 L 231.712 1127.1728" stroke="#6F7276" stroke-opacity="0.3" stroke-width="2.184"/>
  </g>
     <ellipse cx="582.4000000000001" cy="1019.2000000000002" rx="130" ry="19.5" fill="#6B6153" opacity="0.22" filter="url(#soft)"/>
  
  <g transform="rotate(-9 582.4000000000001 884.0000000000001)">
    <path d="M 475.80000000000007 884.0000000000001 a 106.6 130 0 1 0 213.2 0 a 106.6 130 0 1 0 -213.2 0 Z M 492.7000000000001 884.0000000000001 a 89.69999999999999 113.1 0 1 0 179.39999999999998 0 a 89.69999999999999 113.1 0 1 0 -179.39999999999998 0 Z" fill="url(#m-gold)" fill-rule="evenodd"/>
    <ellipse cx="582.4000000000001" cy="884.0000000000001" rx="98.14999999999999" ry="121.55" fill="none"
             stroke="#F0E3C0" stroke-opacity="0.85" stroke-width="5.07"
             stroke-dasharray="90.61 946.4" stroke-dashoffset="21.32"/>
    <ellipse cx="582.4000000000001" cy="884.0000000000001" rx="98.14999999999999" ry="121.55" fill="none"
             stroke="#6E5827" stroke-opacity="0.45" stroke-width="4.394000000000001"
             stroke-dasharray="74.61999999999999 946.4" stroke-dashoffset="-272.09"/>
    <path d="M 475.80000000000007 884.0000000000001 a 106.6 130 0 1 0 213.2 0 a 106.6 130 0 1 0 -213.2 0 Z M 492.7000000000001 884.0000000000001 a 89.69999999999999 113.1 0 1 0 179.39999999999998 0 a 89.69999999999999 113.1 0 1 0 -179.39999999999998 0 Z" fill="none" fill-rule="evenodd"
          stroke="#6E5827" stroke-opacity="0.45" stroke-width="1.014"/>
  </g>
  <path d="M 554.1120000000001 744.8480000000001 L 565.7600000000001 761.8000000000002
           L 599.0400000000001 761.8000000000002 L 610.6880000000001 744.8480000000001 Z"
        fill="url(#m-gold)"/>
  <path d="M 559.936 758.1600000000001 L 604.8640000000001 758.1600000000001"
        stroke="#6E5827" stroke-opacity="0.3" stroke-width="2.9120000000000004"/>
  
  <g>
    <circle cx="582.4000000000001" cy="724.0480000000001" r="41.6" fill="url(#stone-cool)"/>
    <polygon points="619.6803868958955,739.4900418627963 597.8420418627962,761.3283868958955 589.086244930283,740.1900231920373 598.5420231920373,730.734244930283" fill="#6E8798" opacity="0.300"/><line x1="619.6803868958955" y1="739.4900418627963" x2="598.5420231920373" y2="730.734244930283" stroke="#5E7284" stroke-opacity="0.45" stroke-width="0.6656000000000001"/><polygon points="597.8420418627962,761.3283868958955 566.957958137204,761.3283868958955 575.7137550697172,740.1900231920373 589.086244930283,740.1900231920373" fill="#6E8798" opacity="0.230"/><line x1="597.8420418627962" y1="761.3283868958955" x2="589.086244930283" y2="740.1900231920373" stroke="#5E7284" stroke-opacity="0.45" stroke-width="0.6656000000000001"/><polygon points="566.957958137204,761.3283868958955 545.1196131041047,739.4900418627963 566.2579768079629,730.734244930283 575.7137550697172,740.1900231920373" fill="#FFFFFF" opacity="0.160"/><line x1="566.957958137204" y1="761.3283868958955" x2="575.7137550697172" y2="740.1900231920373" stroke="#5E7284" stroke-opacity="0.45" stroke-width="0.6656000000000001"/><polygon points="545.1196131041047,739.4900418627963 545.1196131041047,708.605958137204 566.2579768079629,717.3617550697172 566.2579768079629,730.734244930283" fill="#FFFFFF" opacity="0.514"/><line x1="545.1196131041047" y1="739.4900418627963" x2="566.2579768079629" y2="730.734244930283" stroke="#5E7284" stroke-opacity="0.45" stroke-width="0.6656000000000001"/><polygon points="545.1196131041047,708.605958137204 566.957958137204,686.7676131041047 575.7137550697172,707.9059768079629 566.2579768079629,717.3617550697172" fill="#FFFFFF" opacity="0.660"/><line x1="545.1196131041047" y1="708.605958137204" x2="566.2579768079629" y2="717.3617550697172" stroke="#5E7284" stroke-opacity="0.45" stroke-width="0.6656000000000001"/><polygon points="566.957958137204,686.7676131041047 597.8420418627962,686.7676131041047 589.086244930283,707.9059768079629 575.7137550697172,707.9059768079629" fill="#FFFFFF" opacity="0.514"/><line x1="566.957958137204" y1="686.7676131041047" x2="575.7137550697172" y2="707.9059768079629" stroke="#5E7284" stroke-opacity="0.45" stroke-width="0.6656000000000001"/><polygon points="597.8420418627962,686.7676131041047 619.6803868958955,708.605958137204 598.5420231920373,717.3617550697172 589.086244930283,707.9059768079629" fill="#6E8798" opacity="0.060"/><line x1="597.8420418627962" y1="686.7676131041047" x2="589.086244930283" y2="707.9059768079629" stroke="#5E7284" stroke-opacity="0.45" stroke-width="0.6656000000000001"/><polygon points="619.6803868958955,708.605958137204 619.6803868958955,739.4900418627963 598.5420231920373,730.734244930283 598.5420231920373,717.3617550697172" fill="#6E8798" opacity="0.230"/><line x1="619.6803868958955" y1="708.605958137204" x2="598.5420231920373" y2="717.3617550697172" stroke="#5E7284" stroke-opacity="0.45" stroke-width="0.6656000000000001"/>
    <polygon points="598.5420231920373,730.734244930283 589.086244930283,740.1900231920373 575.7137550697172,740.1900231920373 566.2579768079629,730.734244930283 566.2579768079629,717.3617550697172 575.7137550697172,707.9059768079629 589.086244930283,707.9059768079629 598.5420231920373,717.3617550697172" fill="url(#table-cool)"/>
    <polygon points="598.5420231920373,730.734244930283 589.086244930283,740.1900231920373 575.7137550697172,740.1900231920373 566.2579768079629,730.734244930283 566.2579768079629,717.3617550697172 575.7137550697172,707.9059768079629 589.086244930283,707.9059768079629 598.5420231920373,717.3617550697172" fill="none" stroke="#5E7284" stroke-opacity="0.55" stroke-width="0.7987200000000001"/>
    <circle cx="582.4000000000001" cy="724.0480000000001" r="40.352" fill="none" stroke="#526676" stroke-opacity="0.5" stroke-width="0.6656000000000001"/>
    <circle cx="582.4000000000001" cy="724.0480000000001" r="41.6" fill="none" stroke="#63788A" stroke-opacity="0.6" stroke-width="1.0649600000000001"/>
    <path d="M 563.2640000000001 703.2480000000002 l 12.48 6.656000000000001" stroke="#FFFFFF" stroke-opacity="0.95"
          stroke-width="1.5974400000000002" stroke-linecap="round"/>
  </g>
    <g transform="rotate(135 610.0507035715189 751.6987035715189)">
      <path d="M 606.9307035715188 757.5227035715188 Q 606.3067035715188 747.5387035715189, 610.0507035715189 745.4587035715189
               Q 613.7947035715189 747.5387035715189, 613.1707035715189 757.5227035715188 Z"
            fill="url(#m-gold)" stroke="#6E5827" stroke-opacity="0.4" stroke-width="0.5824"/>
      <path d="M 608.8027035715188 755.4427035715189 Q 608.3867035715189 748.7867035715188, 610.2587035715188 747.1227035715189"
            fill="none" stroke="#F0E3C0" stroke-opacity="0.8" stroke-width="1.3312000000000002" stroke-linecap="round"/>
    </g>
    <g transform="rotate(225 554.7492964284813 751.6987035715189)">
      <path d="M 551.6292964284813 757.5227035715188 Q 551.0052964284813 747.5387035715189, 554.7492964284813 745.4587035715189
               Q 558.4932964284814 747.5387035715189, 557.8692964284813 757.5227035715188 Z"
            fill="url(#m-gold)" stroke="#6E5827" stroke-opacity="0.4" stroke-width="0.5824"/>
      <path d="M 553.5012964284813 755.4427035715189 Q 553.0852964284813 748.7867035715188, 554.9572964284813 747.1227035715189"
            fill="none" stroke="#F0E3C0" stroke-opacity="0.8" stroke-width="1.3312000000000002" stroke-linecap="round"/>
    </g>
    <g transform="rotate(315 554.7492964284813 696.3972964284814)">
      <path d="M 551.6292964284813 702.2212964284813 Q 551.0052964284813 692.2372964284814, 554.7492964284813 690.1572964284813
               Q 558.4932964284814 692.2372964284814, 557.8692964284813 702.2212964284813 Z"
            fill="url(#m-gold)" stroke="#6E5827" stroke-opacity="0.4" stroke-width="0.5824"/>
      <path d="M 553.5012964284813 700.1412964284814 Q 553.0852964284813 693.4852964284813, 554.9572964284813 691.8212964284813"
            fill="none" stroke="#F0E3C0" stroke-opacity="0.8" stroke-width="1.3312000000000002" stroke-linecap="round"/>
    </g>
    <g transform="rotate(405 610.0507035715189 696.3972964284814)">
      <path d="M 606.9307035715188 702.2212964284813 Q 606.3067035715188 692.2372964284814, 610.0507035715189 690.1572964284813
               Q 613.7947035715189 692.2372964284814, 613.1707035715189 702.2212964284813 Z"
            fill="url(#m-gold)" stroke="#6E5827" stroke-opacity="0.4" stroke-width="0.5824"/>
      <path d="M 608.8027035715188 700.1412964284814 Q 608.3867035715189 693.4852964284813, 610.2587035715188 691.8212964284813"
            fill="none" stroke="#F0E3C0" stroke-opacity="0.8" stroke-width="1.3312000000000002" stroke-linecap="round"/>
    </g>
     <ellipse cx="279.76000000000005" cy="933.3999999999999" rx="81.9" ry="21.840000000000003" fill="#6B6153" opacity="0.2" filter="url(#soft)"/>
  <polyline points="303.16,909.9999999999999 303.2474883023522,911.0058206236174 303.15922406588345,912.01695676778 302.8938372772399,913.0279705663874 302.4509151747895,914.0333689136548 301.831014057988,915.0276332900971 301.0356658119894,916.0052500150094 300.06737906282035,916.9607407597965 298.92963490794773,917.8886931536033 297.626877197132,918.7837913107311 296.1644973689022,919.6408461083025 294.5488138786546,920.4548250425814 292.78704628508143,921.2208814932574 290.8872840922143,921.9343832268879 288.8584504746392,922.5909399735348 286.7102610432365,923.1864299144362 284.45317783794553,923.717024923304 282.0983587623807,924.1792144095111 279.6576027024683,924.5698276180005 277.14329059746984,924.8860542481935 274.5683227566473,925.1254632624469 271.9460527382675,925.2860197636733 269.29021812948247,925.3660998315567 266.6148685857354,925.3645032173058 263.93429150659455,925.2804638080413 261.26293574119785,925.1136577836583 258.61533373069005,924.8642094012654 256.00602250706015,924.532694355031 253.44946397755126,924.1201406723734 250.95996493125332,923.6280271208722 248.55159720953435,923.0582791139519 246.23811848458098,922.4132621172432 244.03289409046388,921.6957725714676 241.94882034880652,920.9090263616597 239.9982498263056,920.0566448764356 238.1929189540432,919.1426387147815 236.54387842876386,918.1713891113785 235.06142680410173,917.1476271647269 233.755047665188,916.0764109652115 232.63335076320772,914.9631007326783 231.70401746738713,913.813332085004 230.9737508706724,912.632987570463 230.44823086210408,911.4281666073581 230.13207445372478,910.2051539843288 230.02880162289702,908.9703870839087 230.14080690230145,907.7304220002283 230.46933691977418,906.4918987291937 231.014474058688,905.2615056159628 231.775126376949,904.045943250052 232.74902388904377,902.851888002906 233.93272128111246,901.6859554061981 235.3216070939264,900.5546635715001 236.9099193731061,899.4643968532238 238.69076775012473,898.4213699568943 240.65616188179501,897.4315926938457 242.79704614024052,896.5008355813432 245.10334041000004,895.6345964839251 247.56398681410627,894.8380684874417 250.16700215691776,894.1161091918556 252.89953583835654,893.4732116023913 255.7479329622043,892.9134767910992 258.69780233042763,892.4405884923726 261.73408898630834,892.0577897864634 264.8411509416291,891.7678620146346 268.00283969746516,891.5731060583034 271.20258414441975,891.4753261024463 274.42347740655185,891.475815990692 277.64836617392416,891.5753482660178 280.85994205175666,891.7741659768217 284.0408344397272,892.0719773134834 287.1737044431049,892.4679531253905 290.24133930821984,892.9607273529007 293.2267468683323,893.5484003929088 296.1132494823181,894.2285454006708 298.88457694777475,894.9982175144033 301.5249578721964,895.8539659730063 304.0192089907721,896.7918490811439 306.3528219271215,897.8074519599458 308.5120469038757,898.8959070058609 310.48397292338694,900.0519169647786 312.25660395496857,901.2697805135318 313.8189306838367,902.5434202263921 315.16099739827797,903.8664127902327 316.27396361538695,905.2320213187767 317.1501600718981,906.6332296038044 317.78313873504203,908.0627781294861 318.1677165188471,909.5132016651564 318.30001242372714,910.9768682419577 318.1774778513784,912.4460193098937 317.7989198827764,913.9128108640051 317.164517344225,915.3693553216696 316.2758295247801,916.8077639274676 315.13579744772665,918.2201894576921 313.7487376389411,919.5988689934393 312.12032837568665,920.9361665293288 310.2575884404552,922.2246151842777 308.16884844566493,923.4569587814083 305.8637148361079,924.6261925661134 303.35302671680887,925.7256028345155 300.64880569416226,926.7488052490534 297.76419895764167,927.6897816236697 294.7134158678076,928.5429149680438 291.5116583535453,929.3030225884916 288.17504545724506,929.9653870524783 284.72053240078304,930.5257848341441 281.1658245774682,930.9805124697548 277.52928690541137,931.3264100645089 273.8298490058646,931.5608820056057 270.086906695794,931.6819147508218 266.32022030715495,931.6880915769927 262.54981036586673,931.5786041886743 258.79585118122674,931.353261103771 255.0785629113365,931.0124927500009 251.41810268193532,930.5573532235919 247.83445534478028,929.98951867953 244.34732446728955,929.3112823408524 240.97602414755147,928.5255461328518 237.73937224794054,927.6358089664932 234.65558563648378,926.6461517137666 231.74217801776473,925.5612189359915 229.01586092458416,924.3861974441606 226.4924484278319,923.1267917881512 224.18676610514504,921.7891967889568 222.11256478898264,920.3800672448866 220.28243959185014,918.9064849588632 218.7077546806529,917.375923249422 217.39857424367787,915.796209122691 216.3636000626335,914.1754832964219 215.61011606867723,912.522158279974 215.14394022559895,910.8448747259448 214.96938404548374,909.1524562798227 215.0892200024522,907.4538631635448 215.50465706867183,905.7581447371251 216.21532455396783,904.0743912895042 217.219264386263,902.4116853154388 218.51293192497684,900.7790525395453 220.09120535365577,899.185412951502 221.94740365173502,897.6395321178942 224.0733130986992,896.1499730362161 226.4592222172679,894.7250487951336 229.0939650158321,893.3727763022513 231.96497234447773,892.1008313363311 235.05833113378253,890.9165051751837 238.3588512414436,889.8266630433353 241.85013958889775,888.837704615079 245.51468122870904,887.9555267986977 249.33392694382286,887.1854890165436 253.28838694207278,886.5323811833188 257.3577301737719,886.0003945714024 261.5208887670482,885.5930957374594 265.75616704496974,885.313403668932 270.04135456064694,885.1635702924315 274.3538425615487,885.145164468602 278.67074327238834,885.2590595798084 282.9690113672586,885.5054247980996 287.2255669863251,885.8837201014323 291.41741964046196,886.3926950861805 295.52179233876666,887.0303916036429 299.51624526903674,887.7941502276806 303.378798360031,888.6806205398871 307.0880520567342,889.6857751979289 310.6233056458766,890.8049277320029 313.96467247862637,892.0327539938568 317.093191450642,893.3633171626171 319.99093411648045,894.7900961918828 322.6411068356423,896.306017563275 325.0281473711976,897.9034901930021 327.1378153888646,899.5744433200948 328.9572763344897,901.3103671879029 330.4751782009301,903.1023563143167 331.68172073123543,904.9411551310635 332.5687166435531,906.8172057584436 333.12964450417013,908.7206976690661 333.35969291832413,910.6416189826197 333.2557957536584,912.5698091235242 332.8166581582142,914.4950125645205 332.0427731834087,916.4069333719266 330.9364288722777,918.2952902624609 329.50170572410804,920.1498718772491 327.7444644981719,921.9605919759189 325.6723243713301,923.7175442525775 323.29463151650737,925.4110564759585 320.62241822118887,927.0317436581412 317.66835271684374,928.5705599599667 314.4466799412814,930.0188490466055 310.9731535060987,931.3683926136301 307.26495919030606,932.6114568124049 303.3406303286604,933.7408363135675 299.21995550891216,934.7498957588099 294.9238790358423,935.6326083640023 290.4743946613674,936.3835914508961 285.8944331189024,936.9981387001011 281.20774403635664,937.4722489346979 276.4387728354015,937.8026512616239 271.61253325477946,937.9868264167709 266.7544761622589,938.0230241794626 261.89035534320675,937.9102767425293 257.04609097351255,937.6484079454688 252.2476315006259,937.2380383000526 247.5208146686601,936.6805857601024 242.89122843178876,935.9782622098912 238.38407250444456,935.1340656686097 234.02402129708952,934.1517682314395 229.83508898253737,933.0358997908909 225.84049742997325,931.7917276050393 222.06254773195639,930.4252318020355 218.52249603385525,928.9430769326209 215.24043435541682,927.3525797042481 212.23517707060265,925.6616730516508 209.5241536845396,923.878866719222 207.12330851556644,922.013204550218 205.0470078560645,920.0742186965155 203.30795514819434,918.071880980276 201.91711467002756,916.0165516553498 200.88364418405993,913.9189258314562 200.2148369539389,911.7899778380414 199.91607348667975,909.6409038171399 199.99078330692578,907.483062845497 200.4404170171964,905.3279168955618 201.2644288438391,903.1869699526898 202.46026981283887,901.0717066119441 204.02339164304345,898.9935304822155 205.9472613870264,896.9637027279693 208.22338679205035,894.9932810797355 210.84135229570896,893.0930596434895 213.7888655131393,891.2735098363148 217.0518140155155,889.5447227712027 220.6143321431689,887.9163534075411 224.45887754144604,886.3975667758125 228.56631705360203,884.9969865752827 232.9160215529533,883.7226464320632 237.48596924644343,882.581944091942 242.25285693400838,881.5815988078327 247.19221866292514,880.7276121656976 252.2785511739363,880.0252325754017 257.4854454966273,879.4789236342722 262.7857240154908,879.0923365512334 268.1515822955714,878.8682867983993 273.5547349277382,878.8087351350044 278.96656462863046,878.9147731256902 284.35827380935365,879.1866132515269 289.70103781014535,879.6235836878858 294.96615898566677,880.2241277985025 300.1252208173112,880.9858083699177 305.1502412250774,881.9053165850919 310.01382425215985,882.9784857094913 314.68930930044894,884.2003094374719 319.1509171046476,885.564964821491 323.37389164662824,887.0658396816867 327.3346372299356,888.6955643688058 331.0108499569134,890.4460477294967 334.38164287767205,892.3085170997126 337.427664110913,894.2735621295413 340.13120727133037,896.3311822213144 342.47631357674345,898.4708373424613 344.4488650500896,900.6815019553829 346.0366682767168,902.9517217887364 347.2295282258267,905.2696731580456 348.0193116961764,907.6232245285729 348.40000000000003,909.9999999999999" fill="none" stroke="#6E5827" stroke-width="7.41" stroke-linecap="round"/>
  <polyline points="303.16,909.9999999999999 303.2474883023522,911.0058206236174 303.15922406588345,912.01695676778 302.8938372772399,913.0279705663874 302.4509151747895,914.0333689136548 301.831014057988,915.0276332900971 301.0356658119894,916.0052500150094 300.06737906282035,916.9607407597965 298.92963490794773,917.8886931536033 297.626877197132,918.7837913107311 296.1644973689022,919.6408461083025 294.5488138786546,920.4548250425814 292.78704628508143,921.2208814932574 290.8872840922143,921.9343832268879 288.8584504746392,922.5909399735348 286.7102610432365,923.1864299144362 284.45317783794553,923.717024923304 282.0983587623807,924.1792144095111 279.6576027024683,924.5698276180005 277.14329059746984,924.8860542481935 274.5683227566473,925.1254632624469 271.9460527382675,925.2860197636733 269.29021812948247,925.3660998315567 266.6148685857354,925.3645032173058 263.93429150659455,925.2804638080413 261.26293574119785,925.1136577836583 258.61533373069005,924.8642094012654 256.00602250706015,924.532694355031 253.44946397755126,924.1201406723734 250.95996493125332,923.6280271208722 248.55159720953435,923.0582791139519 246.23811848458098,922.4132621172432 244.03289409046388,921.6957725714676 241.94882034880652,920.9090263616597 239.9982498263056,920.0566448764356 238.1929189540432,919.1426387147815 236.54387842876386,918.1713891113785 235.06142680410173,917.1476271647269 233.755047665188,916.0764109652115 232.63335076320772,914.9631007326783 231.70401746738713,913.813332085004 230.9737508706724,912.632987570463 230.44823086210408,911.4281666073581 230.13207445372478,910.2051539843288 230.02880162289702,908.9703870839087 230.14080690230145,907.7304220002283 230.46933691977418,906.4918987291937 231.014474058688,905.2615056159628 231.775126376949,904.045943250052 232.74902388904377,902.851888002906 233.93272128111246,901.6859554061981 235.3216070939264,900.5546635715001 236.9099193731061,899.4643968532238 238.69076775012473,898.4213699568943 240.65616188179501,897.4315926938457 242.79704614024052,896.5008355813432 245.10334041000004,895.6345964839251 247.56398681410627,894.8380684874417 250.16700215691776,894.1161091918556 252.89953583835654,893.4732116023913 255.7479329622043,892.9134767910992 258.69780233042763,892.4405884923726 261.73408898630834,892.0577897864634 264.8411509416291,891.7678620146346 268.00283969746516,891.5731060583034 271.20258414441975,891.4753261024463 274.42347740655185,891.475815990692 277.64836617392416,891.5753482660178 280.85994205175666,891.7741659768217 284.0408344397272,892.0719773134834 287.1737044431049,892.4679531253905 290.24133930821984,892.9607273529007 293.2267468683323,893.5484003929088 296.1132494823181,894.2285454006708 298.88457694777475,894.9982175144033 301.5249578721964,895.8539659730063 304.0192089907721,896.7918490811439 306.3528219271215,897.8074519599458 308.5120469038757,898.8959070058609 310.48397292338694,900.0519169647786 312.25660395496857,901.2697805135318 313.8189306838367,902.5434202263921 315.16099739827797,903.8664127902327 316.27396361538695,905.2320213187767 317.1501600718981,906.6332296038044 317.78313873504203,908.0627781294861 318.1677165188471,909.5132016651564 318.30001242372714,910.9768682419577 318.1774778513784,912.4460193098937 317.7989198827764,913.9128108640051 317.164517344225,915.3693553216696 316.2758295247801,916.8077639274676 315.13579744772665,918.2201894576921 313.7487376389411,919.5988689934393 312.12032837568665,920.9361665293288 310.2575884404552,922.2246151842777 308.16884844566493,923.4569587814083 305.8637148361079,924.6261925661134 303.35302671680887,925.7256028345155 300.64880569416226,926.7488052490534 297.76419895764167,927.6897816236697 294.7134158678076,928.5429149680438 291.5116583535453,929.3030225884916 288.17504545724506,929.9653870524783 284.72053240078304,930.5257848341441 281.1658245774682,930.9805124697548 277.52928690541137,931.3264100645089 273.8298490058646,931.5608820056057 270.086906695794,931.6819147508218 266.32022030715495,931.6880915769927 262.54981036586673,931.5786041886743 258.79585118122674,931.353261103771 255.0785629113365,931.0124927500009 251.41810268193532,930.5573532235919 247.83445534478028,929.98951867953 244.34732446728955,929.3112823408524 240.97602414755147,928.5255461328518 237.73937224794054,927.6358089664932 234.65558563648378,926.6461517137666 231.74217801776473,925.5612189359915 229.01586092458416,924.3861974441606 226.4924484278319,923.1267917881512 224.18676610514504,921.7891967889568 222.11256478898264,920.3800672448866 220.28243959185014,918.9064849588632 218.7077546806529,917.375923249422 217.39857424367787,915.796209122691 216.3636000626335,914.1754832964219 215.61011606867723,912.522158279974 215.14394022559895,910.8448747259448 214.96938404548374,909.1524562798227 215.0892200024522,907.4538631635448 215.50465706867183,905.7581447371251 216.21532455396783,904.0743912895042 217.219264386263,902.4116853154388 218.51293192497684,900.7790525395453 220.09120535365577,899.185412951502 221.94740365173502,897.6395321178942 224.0733130986992,896.1499730362161 226.4592222172679,894.7250487951336 229.0939650158321,893.3727763022513 231.96497234447773,892.1008313363311 235.05833113378253,890.9165051751837 238.3588512414436,889.8266630433353 241.85013958889775,888.837704615079 245.51468122870904,887.9555267986977 249.33392694382286,887.1854890165436 253.28838694207278,886.5323811833188 257.3577301737719,886.0003945714024 261.5208887670482,885.5930957374594 265.75616704496974,885.313403668932 270.04135456064694,885.1635702924315 274.3538425615487,885.145164468602 278.67074327238834,885.2590595798084 282.9690113672586,885.5054247980996 287.2255669863251,885.8837201014323 291.41741964046196,886.3926950861805 295.52179233876666,887.0303916036429 299.51624526903674,887.7941502276806 303.378798360031,888.6806205398871 307.0880520567342,889.6857751979289 310.6233056458766,890.8049277320029 313.96467247862637,892.0327539938568 317.093191450642,893.3633171626171 319.99093411648045,894.7900961918828 322.6411068356423,896.306017563275 325.0281473711976,897.9034901930021 327.1378153888646,899.5744433200948 328.9572763344897,901.3103671879029 330.4751782009301,903.1023563143167 331.68172073123543,904.9411551310635 332.5687166435531,906.8172057584436 333.12964450417013,908.7206976690661 333.35969291832413,910.6416189826197 333.2557957536584,912.5698091235242 332.8166581582142,914.4950125645205 332.0427731834087,916.4069333719266 330.9364288722777,918.2952902624609 329.50170572410804,920.1498718772491 327.7444644981719,921.9605919759189 325.6723243713301,923.7175442525775 323.29463151650737,925.4110564759585 320.62241822118887,927.0317436581412 317.66835271684374,928.5705599599667 314.4466799412814,930.0188490466055 310.9731535060987,931.3683926136301 307.26495919030606,932.6114568124049 303.3406303286604,933.7408363135675 299.21995550891216,934.7498957588099 294.9238790358423,935.6326083640023 290.4743946613674,936.3835914508961 285.8944331189024,936.9981387001011 281.20774403635664,937.4722489346979 276.4387728354015,937.8026512616239 271.61253325477946,937.9868264167709 266.7544761622589,938.0230241794626 261.89035534320675,937.9102767425293 257.04609097351255,937.6484079454688 252.2476315006259,937.2380383000526 247.5208146686601,936.6805857601024 242.89122843178876,935.9782622098912 238.38407250444456,935.1340656686097 234.02402129708952,934.1517682314395 229.83508898253737,933.0358997908909 225.84049742997325,931.7917276050393 222.06254773195639,930.4252318020355 218.52249603385525,928.9430769326209 215.24043435541682,927.3525797042481 212.23517707060265,925.6616730516508 209.5241536845396,923.878866719222 207.12330851556644,922.013204550218 205.0470078560645,920.0742186965155 203.30795514819434,918.071880980276 201.91711467002756,916.0165516553498 200.88364418405993,913.9189258314562 200.2148369539389,911.7899778380414 199.91607348667975,909.6409038171399 199.99078330692578,907.483062845497 200.4404170171964,905.3279168955618 201.2644288438391,903.1869699526898 202.46026981283887,901.0717066119441 204.02339164304345,898.9935304822155 205.9472613870264,896.9637027279693 208.22338679205035,894.9932810797355 210.84135229570896,893.0930596434895 213.7888655131393,891.2735098363148 217.0518140155155,889.5447227712027 220.6143321431689,887.9163534075411 224.45887754144604,886.3975667758125 228.56631705360203,884.9969865752827 232.9160215529533,883.7226464320632 237.48596924644343,882.581944091942 242.25285693400838,881.5815988078327 247.19221866292514,880.7276121656976 252.2785511739363,880.0252325754017 257.4854454966273,879.4789236342722 262.7857240154908,879.0923365512334 268.1515822955714,878.8682867983993 273.5547349277382,878.8087351350044 278.96656462863046,878.9147731256902 284.35827380935365,879.1866132515269 289.70103781014535,879.6235836878858 294.96615898566677,880.2241277985025 300.1252208173112,880.9858083699177 305.1502412250774,881.9053165850919 310.01382425215985,882.9784857094913 314.68930930044894,884.2003094374719 319.1509171046476,885.564964821491 323.37389164662824,887.0658396816867 327.3346372299356,888.6955643688058 331.0108499569134,890.4460477294967 334.38164287767205,892.3085170997126 337.427664110913,894.2735621295413 340.13120727133037,896.3311822213144 342.47631357674345,898.4708373424613 344.4488650500896,900.6815019553829 346.0366682767168,902.9517217887364 347.2295282258267,905.2696731580456 348.0193116961764,907.6232245285729 348.40000000000003,909.9999999999999" fill="none" stroke="#C9AA6C" stroke-width="5.460000000000001" stroke-linecap="round"/>
  <polyline points="302.22400000000005,908.4399999999999 302.31148830235225,909.4458206236175 302.22322406588347,910.4569567677801 301.95783727723995,911.4679705663874 301.5149151747895,912.4733689136549 300.895014057988,913.4676332900972 300.09966581198944,914.4452500150095 299.1313790628204,915.4007407597966 297.99363490794775,916.3286931536034 296.690877197132,917.2237913107311 295.2284973689022,918.0808461083026 293.6128138786546,918.8948250425815 291.85104628508145,919.6608814932574 289.95128409221434,920.374383226888 287.9224504746392,921.0309399735348 285.77426104323655,921.6264299144362 283.51717783794555,922.1570249233041 281.16235876238073,922.6192144095112 278.7216027024683,923.0098276180006 276.20729059746986,923.3260542481936 273.63232275664734,923.565463262447 271.0100527382675,923.7260197636733 268.3542181294825,923.8060998315567 265.6788685857354,923.8045032173059 262.99829150659457,923.7204638080414 260.3269357411979,923.5536577836583 257.6793337306901,923.3042094012654 255.07002250706014,922.9726943550311 252.51346397755125,922.5601406723734 250.02396493125332,922.0680271208722 247.61559720953434,921.498279113952 245.30211848458097,920.8532621172433 243.09689409046388,920.1357725714677 241.0128203488065,919.3490263616598 239.0622498263056,918.4966448764357 237.2569189540432,917.5826387147815 235.60787842876385,916.6113891113786 234.12542680410172,915.587627164727 232.81904766518798,914.5164109652115 231.6973507632077,913.4031007326784 230.76801746738712,912.2533320850041 230.0377508706724,911.072987570463 229.51223086210408,909.8681666073581 229.19607445372478,908.6451539843289 229.092801622897,907.4103870839087 229.20480690230144,906.1704220002283 229.53333691977417,904.9318987291938 230.078474058688,903.7015056159629 230.839126376949,902.4859432500521 231.81302388904376,901.291888002906 232.99672128111246,900.1259554061982 234.38560709392638,898.9946635715002 235.9739193731061,897.9043968532238 237.75476775012473,896.8613699568944 239.720161881795,895.8715926938457 241.86104614024052,894.9408355813432 244.16734041000004,894.0745964839251 246.62798681410627,893.2780684874417 249.23100215691775,892.5561091918556 251.96353583835653,891.9132116023914 254.81193296220428,891.3534767910993 257.76180233042766,890.8805884923727 260.79808898630836,890.4977897864635 263.90515094162913,890.2078620146347 267.0668396974652,890.0131060583035 270.26658414441977,889.9153261024463 273.4874774065519,889.9158159906921 276.7123661739242,890.0153482660179 279.9239420517567,890.2141659768217 283.1048344397272,890.5119773134835 286.2377044431049,890.9079531253906 289.30533930821986,891.4007273529007 292.29074686833235,891.9884003929088 295.17724948231813,892.6685454006708 297.94857694777477,893.4382175144034 300.58895787219643,894.2939659730064 303.0832089907721,895.231849081144 305.41682192712153,896.2474519599458 307.57604690387575,897.3359070058609 309.54797292338696,898.4919169647786 311.3206039549686,899.7097805135319 312.8829306838367,900.9834202263921 314.224997398278,902.3064127902328 315.33796361538697,903.6720213187767 316.2141600718981,905.0732296038044 316.84713873504205,906.5027781294862 317.2317165188471,907.9532016651565 317.36401242372716,909.4168682419578 317.2414778513784,910.8860193098938 316.8629198827764,912.3528108640052 316.228517344225,913.8093553216696 315.3398295247801,915.2477639274676 314.19979744772667,916.6601894576921 312.81273763894114,918.0388689934393 311.1843283756867,919.3761665293289 309.32158844045523,920.6646151842777 307.23284844566496,921.8969587814083 304.9277148361079,923.0661925661135 302.4170267168089,924.1656028345155 299.7128056941623,925.1888052490534 296.8281989576417,926.1297816236697 293.77741586780763,926.9829149680438 290.5756583535453,927.7430225884916 287.2390454572451,928.4053870524783 283.78453240078306,928.9657848341442 280.2298245774682,929.4205124697548 276.5932869054114,929.7664100645089 272.89384900586464,930.0008820056057 269.15090669579405,930.1219147508218 265.384220307155,930.1280915769928 261.61381036586675,930.0186041886743 257.85985118122676,929.7932611037711 254.14256291133648,929.4524927500009 250.48210268193532,928.997353223592 246.89845534478027,928.42951867953 243.41132446728955,927.7512823408524 240.04002414755146,926.9655461328518 236.80337224794053,926.0758089664932 233.71958563648377,925.0861517137666 230.80617801776472,924.0012189359916 228.07986092458415,922.8261974441607 225.5564484278319,921.5667917881512 223.25076610514503,920.2291967889569 221.17656478898263,918.8200672448867 219.34643959185013,917.3464849588632 217.7717546806529,915.8159232494221 216.46257424367786,914.2362091226911 215.4276000626335,912.615483296422 214.67411606867722,910.962158279974 214.20794022559895,909.2848747259449 214.03338404548373,907.5924562798227 214.1532200024522,905.8938631635449 214.56865706867183,904.1981447371252 215.27932455396783,902.5143912895043 216.283264386263,900.8516853154389 217.57693192497683,899.2190525395454 219.15520535365576,897.6254129515021 221.011403651735,896.0795321178942 223.1373130986992,894.5899730362162 225.5232222172679,893.1650487951337 228.1579650158321,891.8127763022513 231.02897234447772,890.5408313363312 234.12233113378252,889.3565051751838 237.4228512414436,888.2666630433354 240.91413958889774,887.2777046150791 244.57868122870903,886.3955267986978 248.39792694382285,885.6254890165436 252.35238694207277,884.9723811833188 256.42173017377195,884.4403945714024 260.5848887670482,884.0330957374595 264.82016704496976,883.753403668932 269.10535456064696,883.6035702924315 273.4178425615487,883.5851644686021 277.73474327238836,883.6990595798085 282.0330113672586,883.9454247980997 286.2895669863251,884.3237201014324 290.481419640462,884.8326950861806 294.5857923387667,885.470391603643 298.58024526903677,886.2341502276806 302.442798360031,887.1206205398871 306.15205205673425,888.125775197929 309.6873056458766,889.2449277320029 313.0286724786264,890.4727539938568 316.157191450642,891.8033171626172 319.05493411648047,893.2300961918828 321.7051068356423,894.746017563275 324.0921473711976,896.3434901930021 326.20181538886465,898.0144433200949 328.0212763344897,899.750367187903 329.5391782009301,901.5423563143167 330.74572073123545,903.3811551310636 331.6327166435531,905.2572057584437 332.19364450417015,907.1606976690662 332.42369291832415,909.0816189826197 332.3197957536584,911.0098091235243 331.8806581582142,912.9350125645205 331.10677318340873,914.8469333719266 330.0004288722777,916.7352902624609 328.56570572410806,918.5898718772492 326.80846449817193,920.4005919759189 324.7363243713301,922.1575442525775 322.3586315165074,923.8510564759586 319.6864182211889,925.4717436581412 316.73235271684376,927.0105599599667 313.5106799412814,928.4588490466056 310.0371535060987,929.8083926136302 306.3289591903061,931.0514568124049 302.4046303286604,932.1808363135675 298.2839555089122,933.1898957588099 293.9878790358423,934.0726083640023 289.5383946613674,934.8235914508962 284.9584331189024,935.4381387001011 280.27174403635667,935.9122489346979 275.5027728354015,936.2426512616239 270.6765332547795,936.426826416771 265.81847616225895,936.4630241794626 260.95435534320677,936.3502767425293 256.11009097351257,936.0884079454688 251.31163150062588,935.6780383000527 246.5848146686601,935.1205857601025 241.95522843178875,934.4182622098913 237.44807250444455,933.5740656686097 233.0880212970895,932.5917682314396 228.89908898253736,931.4758997908909 224.90449742997325,930.2317276050394 221.12654773195638,928.8652318020355 217.58649603385524,927.383076932621 214.30443435541682,925.7925797042482 211.29917707060264,924.1016730516509 208.5881536845396,922.318866719222 206.18730851556643,920.4532045502181 204.1110078560645,918.5142186965155 202.37195514819433,916.511880980276 200.98111467002755,914.4565516553498 199.94764418405993,912.3589258314563 199.2788369539389,910.2299778380415 198.98007348667974,908.08090381714 199.05478330692577,905.923062845497 199.5044170171964,903.7679168955618 200.3284288438391,901.6269699526898 201.52426981283887,899.5117066119442 203.08739164304345,897.4335304822156 205.0112613870264,895.4037027279694 207.28738679205034,893.4332810797356 209.90535229570895,891.5330596434895 212.8528655131393,889.7135098363149 216.1158140155155,887.9847227712028 219.6783321431689,886.3563534075412 223.52287754144604,884.8375667758125 227.63031705360203,883.4369865752827 231.9800215529533,882.1626464320633 236.54996924644342,881.021944091942 241.31685693400837,880.0215988078328 246.25621866292514,879.1676121656976 251.3425511739363,878.4652325754017 256.5494454966273,877.9189236342722 261.84972401549084,877.5323365512335 267.21558229557144,877.3082867983993 272.6187349277382,877.2487351350045 278.0305646286305,877.3547731256903 283.42227380935367,877.6266132515269 288.7650378101454,878.0635836878859 294.0301589856668,878.6641277985026 299.1892208173112,879.4258083699177 304.21424122507744,880.345316585092 309.07782425215987,881.4184857094914 313.75330930044896,882.640309437472 318.2149171046476,884.0049648214911 322.43789164662826,885.5058396816868 326.3986372299356,887.1355643688058 330.0748499569134,888.8860477294968 333.44564287767207,890.7485170997127 336.491664110913,892.7135621295414 339.1952072713304,894.7711822213145 341.5403135767435,896.9108373424614 343.5128650500896,899.121501955383 345.1006682767168,901.3917217887365 346.2935282258267,903.7096731580457 347.0833116961764,906.063224528573 347.46400000000006,908.4399999999999" fill="none" stroke="#F0E3C0" stroke-opacity="0.7" stroke-width="1.716" stroke-linecap="round"/>
     
  <g>
    <ellipse cx="859.9499999999999" cy="1055.925" rx="60.775" ry="11.44" fill="#6B6153" opacity="0.18" filter="url(#soft)"/>
    <path d="M 795.5999999999999 988 a 57.2 71.5 0 1 0 114.4 0 a 57.2 71.5 0 1 0 -114.4 0 Z M 814.1899999999999 988 a 38.61 52.91 0 1 0 77.22 0 a 38.61 52.91 0 1 0 -77.22 0 Z" fill="url(#m-wax)" fill-rule="evenodd"/>
    <path d="M 795.5999999999999 988 a 57.2 71.5 0 1 0 114.4 0 a 57.2 71.5 0 1 0 -114.4 0 Z M 814.1899999999999 988 a 38.61 52.91 0 1 0 77.22 0 a 38.61 52.91 0 1 0 -77.22 0 Z" fill="none" stroke="#7E716D" stroke-opacity="0.28"
          stroke-width="1.0010000000000001" fill-rule="evenodd"/>
    <ellipse cx="812.76" cy="966.55" rx="5.005000000000001" ry="15.73" fill="#EDE4E2" opacity="0.5"
             transform="rotate(-22 812.76 966.55)"/>
  </g>
  <rect width="1040" height="1300" fill="url(#vignette)"/>
  <rect width="1040" height="1300" filter="url(#grain)" opacity="0.05" style="mix-blend-mode:overlay"/>
</svg>