<svg xmlns="http://www.w3.org/2000/svg" width="880" height="1100" viewBox="0 0 880 1100" role="img">
  <defs>
    <linearGradient id="ground" x1="0.1" y1="0" x2="0.7" y2="1">
      <stop offset="0" stop-color="#EFE9DD"/><stop offset="1" stop-color="#D9CFBE"/>
    </linearGradient>
    <radialGradient id="window" cx="30%" cy="20%" r="70%">
      <stop offset="0" stop-color="#FFFDF8" stop-opacity="0.9"/>
      <stop offset="0.5" stop-color="#FFFDF8" stop-opacity="0.22"/>
      <stop offset="1" stop-color="#FFFDF8" stop-opacity="0"/>
    </radialGradient>
    <radialGradient id="vignette" cx="50%" cy="46%" r="72%">
      <stop offset="0.55" stop-color="#6E6353" stop-opacity="0"/>
      <stop offset="1" stop-color="#6E6353" stop-opacity="0.2"/>
    </radialGradient>
    
    <linearGradient id="m-gold" x1="0.12" y1="0" x2="0.88" y2="1">
      <stop offset="0" stop-color="#F0E3C0"/><stop offset="0.26" stop-color="#C9AA6C"/>
      <stop offset="0.55" stop-color="#96793E"/><stop offset="0.78" stop-color="#C9AA6C"/>
      <stop offset="1" stop-color="#6E5827"/>
    </linearGradient>
    <linearGradient id="m-rose" x1="0.12" y1="0" x2="0.88" y2="1">
      <stop offset="0" stop-color="#F0D5C6"/><stop offset="0.26" stop-color="#C99C89"/>
      <stop offset="0.55" stop-color="#966B58"/><stop offset="0.78" stop-color="#C99C89"/>
      <stop offset="1" stop-color="#6E4C3C"/>
    </linearGradient>
    <linearGradient id="m-platinum" x1="0.12" y1="0" x2="0.88" y2="1">
      <stop offset="0" stop-color="#F6F7F9"/><stop offset="0.26" stop-color="#C6C9CD"/>
      <stop offset="0.55" stop-color="#93969B"/><stop offset="0.78" stop-color="#C6C9CD"/>
      <stop offset="1" stop-color="#6F7276"/>
    </linearGradient>
    <linearGradient id="m-white" x1="0.12" y1="0" x2="0.88" y2="1">
      <stop offset="0" stop-color="#F7F8FA"/><stop offset="0.26" stop-color="#CBCDD1"/>
      <stop offset="0.55" stop-color="#989BA0"/><stop offset="0.78" stop-color="#CBCDD1"/>
      <stop offset="1" stop-color="#74777C"/>
    </linearGradient>
    <linearGradient id="m-graphite" x1="0.12" y1="0" x2="0.88" y2="1">
      <stop offset="0" stop-color="#C6C4BF"/><stop offset="0.26" stop-color="#8E8B85"/>
      <stop offset="0.55" stop-color="#63615C"/><stop offset="0.78" stop-color="#8E8B85"/>
      <stop offset="1" stop-color="#454340"/>
    </linearGradient>
    <linearGradient id="m-wax" x1="0.12" y1="0" x2="0.88" y2="1">
      <stop offset="0" stop-color="#EDE4E2"/><stop offset="0.26" stop-color="#CDBFBD"/>
      <stop offset="0.55" stop-color="#A2938F"/><stop offset="0.78" stop-color="#CDBFBD"/>
      <stop offset="1" stop-color="#7E716D"/>
    </linearGradient>
    <linearGradient id="stone-cool" x1="0.15" y1="0" x2="0.8" y2="1">
      <stop offset="0" stop-color="#DCE4EA"/><stop offset="1" stop-color="#C6D0D8"/>
    </linearGradient>
    <linearGradient id="table-cool" x1="0" y1="0" x2="0.7" y2="1">
      <stop offset="0" stop-color="#FAFCFD"/><stop offset="1" stop-color="#DCE4EA"/>
    </linearGradient>
    <linearGradient id="stone-warm" x1="0.15" y1="0" x2="0.8" y2="1">
      <stop offset="0" stop-color="#E4E1DA"/><stop offset="1" stop-color="#CFCBC1"/>
    </linearGradient>
    <linearGradient id="table-warm" x1="0" y1="0" x2="0.7" y2="1">
      <stop offset="0" stop-color="#FDFCF9"/><stop offset="1" stop-color="#E4E1DA"/>
    </linearGradient>
    <filter id="soft" x="-60%" y="-60%" width="220%" height="220%">
      <feGaussianBlur stdDeviation="10.56"/></filter>
    <filter id="softer" x="-60%" y="-60%" width="220%" height="220%">
      <feGaussianBlur stdDeviation="27.456000000000003"/></filter>
    <filter id="grain"><feTurbulence type="fractalNoise" baseFrequency="0.9" numOctaves="3" stitchTiles="stitch"/>
      <feColorMatrix type="saturate" values="0"/></filter>
  
  <linearGradient id="benchtop" x1="0" y1="0" x2="0.2" y2="1">
    <stop offset="0" stop-color="#D6C4A6"/><stop offset="0.5" stop-color="#C7B294"/><stop offset="1" stop-color="#B29B7C"/>
  </linearGradient></defs>
  <rect width="880" height="1100" fill="url(#ground)"/>
  
  <rect width="880" height="1100" fill="url(#window)"/>
  
  <g transform="rotate(-6 352 506)">
    <ellipse cx="361.856" cy="520.08" rx="246.40000000000003" ry="176" fill="#6B6153" opacity="0.13" filter="url(#soft)"/>
    <rect x="105.6" y="330" width="492.80000000000007" height="352" fill="#FBF7EE" opacity="0.85"/>
    <rect x="105.6" y="330" width="492.80000000000007" height="352" fill="none" stroke="#8C8271" stroke-opacity="0.16" stroke-width="1"/>
  </g>
     
  <g fill="none" stroke="#6E6A62" stroke-opacity="0.6" stroke-linecap="round">
    <ellipse cx="334.4" cy="495" rx="72.16" ry="88" stroke-width="3.96"/>
    <ellipse cx="334.4" cy="495" rx="56.32" ry="70.4" stroke-width="2.6399999999999997" stroke-opacity="0.4"/>
    <path d="M 302.71999999999997 412.28 l 31.68 -31.68 l 31.68 31.68 l -31.68 24.64 Z" stroke-width="3.696"/>
    <path d="M 302.71999999999997 412.28 l 31.68 24.64 l 31.68 -24.64" stroke-width="2.464" stroke-opacity="0.4"/>
    <path d="M 227.03999999999996 495 h 28.16 M 413.59999999999997 495 h 28.16" stroke-width="2.288" stroke-opacity="0.3"/>
    <path d="M 241.11999999999998 489.72 v 10.559999999999999 M 427.67999999999995 489.72 v 10.559999999999999" stroke-width="2.288" stroke-opacity="0.3"/>
  </g>
     
  <g>
    <ellipse cx="570.9000000000001" cy="733.15" rx="65.45000000000002" ry="12.320000000000002" fill="#6B6153" opacity="0.18" filter="url(#soft)"/>
    <path d="M 501.6 660 a 61.600000000000016 77.00000000000001 0 1 0 123.20000000000003 0 a 61.600000000000016 77.00000000000001 0 1 0 -123.20000000000003 0 Z M 521.62 660 a 41.58000000000001 56.98000000000001 0 1 0 83.16000000000003 0 a 41.58000000000001 56.98000000000001 0 1 0 -83.16000000000003 0 Z" fill="url(#m-wax)" fill-rule="evenodd"/>
    <path d="M 501.6 660 a 61.600000000000016 77.00000000000001 0 1 0 123.20000000000003 0 a 61.600000000000016 77.00000000000001 0 1 0 -123.20000000000003 0 Z M 521.62 660 a 41.58000000000001 56.98000000000001 0 1 0 83.16000000000003 0 a 41.58000000000001 56.98000000000001 0 1 0 -83.16000000000003 0 Z" fill="none" stroke="#7E716D" stroke-opacity="0.28"
          stroke-width="1.0780000000000003" fill-rule="evenodd"/>
    <ellipse cx="520.08" cy="636.9" rx="5.3900000000000015" ry="16.940000000000005" fill="#EDE4E2" opacity="0.5"
             transform="rotate(-22 520.08 636.9)"/>
  </g>
  <rect width="880" height="1100" fill="url(#vignette)"/>
  <rect width="880" height="1100" filter="url(#grain)" opacity="0.05" style="mix-blend-mode:overlay"/>
</svg>