<svg xmlns="http://www.w3.org/2000/svg" width="880" height="1100" viewBox="0 0 880 1100" role="img">
  <defs>
    <linearGradient id="ground" x1="0.1" y1="0" x2="0.7" y2="1">
      <stop offset="0" stop-color="#EAE7E0"/><stop offset="1" stop-color="#D3CFC5"/>
    </linearGradient>
    <radialGradient id="window" cx="34%" cy="24%" r="70%">
      <stop offset="0" stop-color="#FFFDF8" stop-opacity="0.9"/>
      <stop offset="0.5" stop-color="#FFFDF8" stop-opacity="0.22"/>
      <stop offset="1" stop-color="#FFFDF8" stop-opacity="0"/>
    </radialGradient>
    <radialGradient id="vignette" cx="50%" cy="46%" r="72%">
      <stop offset="0.55" stop-color="#6E6353" stop-opacity="0"/>
      <stop offset="1" stop-color="#6E6353" stop-opacity="0.2"/>
    </radialGradient>
    
    <linearGradient id="m-gold" x1="0.12" y1="0" x2="0.88" y2="1">
      <stop offset="0" stop-color="#F0E3C0"/><stop offset="0.26" stop-color="#C9AA6C"/>
      <stop offset="0.55" stop-color="#96793E"/><stop offset="0.78" stop-color="#C9AA6C"/>
      <stop offset="1" stop-color="#6E5827"/>
    </linearGradient>
    <linearGradient id="m-rose" x1="0.12" y1="0" x2="0.88" y2="1">
      <stop offset="0" stop-color="#F0D5C6"/><stop offset="0.26" stop-color="#C99C89"/>
      <stop offset="0.55" stop-color="#966B58"/><stop offset="0.78" stop-color="#C99C89"/>
      <stop offset="1" stop-color="#6E4C3C"/>
    </linearGradient>
    <linearGradient id="m-platinum" x1="0.12" y1="0" x2="0.88" y2="1">
      <stop offset="0" stop-color="#F6F7F9"/><stop offset="0.26" stop-color="#C6C9CD"/>
      <stop offset="0.55" stop-color="#93969B"/><stop offset="0.78" stop-color="#C6C9CD"/>
      <stop offset="1" stop-color="#6F7276"/>
    </linearGradient>
    <linearGradient id="m-white" x1="0.12" y1="0" x2="0.88" y2="1">
      <stop offset="0" stop-color="#F7F8FA"/><stop offset="0.26" stop-color="#CBCDD1"/>
      <stop offset="0.55" stop-color="#989BA0"/><stop offset="0.78" stop-color="#CBCDD1"/>
      <stop offset="1" stop-color="#74777C"/>
    </linearGradient>
    <linearGradient id="m-graphite" x1="0.12" y1="0" x2="0.88" y2="1">
      <stop offset="0" stop-color="#C6C4BF"/><stop offset="0.26" stop-color="#8E8B85"/>
      <stop offset="0.55" stop-color="#63615C"/><stop offset="0.78" stop-color="#8E8B85"/>
      <stop offset="1" stop-color="#454340"/>
    </linearGradient>
    <linearGradient id="m-wax" x1="0.12" y1="0" x2="0.88" y2="1">
      <stop offset="0" stop-color="#EDE4E2"/><stop offset="0.26" stop-color="#CDBFBD"/>
      <stop offset="0.55" stop-color="#A2938F"/><stop offset="0.78" stop-color="#CDBFBD"/>
      <stop offset="1" stop-color="#7E716D"/>
    </linearGradient>
    <linearGradient id="stone-cool" x1="0.15" y1="0" x2="0.8" y2="1">
      <stop offset="0" stop-color="#DCE4EA"/><stop offset="1" stop-color="#C6D0D8"/>
    </linearGradient>
    <linearGradient id="table-cool" x1="0" y1="0" x2="0.7" y2="1">
      <stop offset="0" stop-color="#FAFCFD"/><stop offset="1" stop-color="#DCE4EA"/>
    </linearGradient>
    <linearGradient id="stone-warm" x1="0.15" y1="0" x2="0.8" y2="1">
      <stop offset="0" stop-color="#E4E1DA"/><stop offset="1" stop-color="#CFCBC1"/>
    </linearGradient>
    <linearGradient id="table-warm" x1="0" y1="0" x2="0.7" y2="1">
      <stop offset="0" stop-color="#FDFCF9"/><stop offset="1" stop-color="#E4E1DA"/>
    </linearGradient>
    <filter id="soft" x="-60%" y="-60%" width="220%" height="220%">
      <feGaussianBlur stdDeviation="10.56"/></filter>
    <filter id="softer" x="-60%" y="-60%" width="220%" height="220%">
      <feGaussianBlur stdDeviation="27.456000000000003"/></filter>
    <filter id="grain"><feTurbulence type="fractalNoise" baseFrequency="0.9" numOctaves="3" stitchTiles="stitch"/>
      <feColorMatrix type="saturate" values="0"/></filter>
  
  <linearGradient id="benchtop" x1="0" y1="0" x2="0.2" y2="1">
    <stop offset="0" stop-color="#D6C4A6"/><stop offset="0.5" stop-color="#C7B294"/><stop offset="1" stop-color="#B29B7C"/>
  </linearGradient></defs>
  <rect width="880" height="1100" fill="url(#ground)"/>
  
  <rect width="880" height="1100" fill="url(#window)"/>
  <g transform="rotate(-14 123.20000000000002 616.0000000000001)">
    <ellipse cx="305.36" cy="636.2400000000001" rx="178.112" ry="8.9056" fill="#6B6153" opacity="0.16" filter="url(#soft)"/>
    <path d="M 123.20000000000002 603.8560000000001 L 528 614.7856000000002 L 528 617.2144000000001 L 123.20000000000002 628.1440000000001 Z" fill="url(#m-platinum)"/>
    <path d="M 123.20000000000002 603.8560000000001 L 528 614.7856000000002 L 374.17600000000004 613.5712000000001 L 123.20000000000002 614.3808000000001 Z" fill="#F6F7F9" opacity="0.75"/>
    <path d="M 236.54400000000004 607.4992000000001 L 260.832 624.5008000000001" stroke="#6F7276" stroke-opacity="0.3" stroke-width="2.024"/>
  </g><ellipse cx="428.94304071140664" cy="589.0611436105166" rx="51.27520234463923" ry="16.60339885445461" fill="#6B6153" opacity="0.18" filter="url(#soft)"/>
  <g>
    <circle cx="414.29298289865255" cy="562.2027042871342" r="48.833526042513554" fill="url(#stone-cool)"/>
    <polygon points="458.0557892533567,580.3298522067602 432.4201308182785,605.9655106418384 422.141851070037,581.151548275769 433.24182688728735,570.0515724585186" fill="#6E8798" opacity="0.300"/><line x1="458.0557892533567" y1="580.3298522067602" x2="433.24182688728735" y2="570.0515724585186" stroke="#5E7284" stroke-opacity="0.45" stroke-width="0.7813364166802169"/><polygon points="432.4201308182785,605.9655106418384 396.16583497902667,605.9655106418384 406.44411472726813,581.151548275769 422.141851070037,581.151548275769" fill="#6E8798" opacity="0.230"/><line x1="432.4201308182785" y1="605.9655106418384" x2="422.141851070037" y2="581.151548275769" stroke="#5E7284" stroke-opacity="0.45" stroke-width="0.7813364166802169"/><polygon points="396.16583497902667,605.9655106418384 370.5301765439484,580.3298522067602 395.34413891001776,570.0515724585186 406.44411472726813,581.151548275769" fill="#FFFFFF" opacity="0.160"/><line x1="396.16583497902667" y1="605.9655106418384" x2="406.44411472726813" y2="581.151548275769" stroke="#5E7284" stroke-opacity="0.45" stroke-width="0.7813364166802169"/><polygon points="370.5301765439484,580.3298522067602 370.5301765439484,544.0755563675083 395.34413891001776,554.3538361157498 395.34413891001776,570.0515724585186" fill="#FFFFFF" opacity="0.514"/><line x1="370.5301765439484" y1="580.3298522067602" x2="395.34413891001776" y2="570.0515724585186" stroke="#5E7284" stroke-opacity="0.45" stroke-width="0.7813364166802169"/><polygon points="370.5301765439484,544.0755563675083 396.1658349790266,518.4398979324301 406.44411472726813,543.2538602984995 395.34413891001776,554.3538361157498" fill="#FFFFFF" opacity="0.660"/><line x1="370.5301765439484" y1="544.0755563675083" x2="395.34413891001776" y2="554.3538361157498" stroke="#5E7284" stroke-opacity="0.45" stroke-width="0.7813364166802169"/><polygon points="396.1658349790266,518.4398979324301 432.4201308182785,518.4398979324301 422.141851070037,543.2538602984995 406.44411472726813,543.2538602984995" fill="#FFFFFF" opacity="0.514"/><line x1="396.1658349790266" y1="518.4398979324301" x2="406.44411472726813" y2="543.2538602984995" stroke="#5E7284" stroke-opacity="0.45" stroke-width="0.7813364166802169"/><polygon points="432.4201308182785,518.4398979324301 458.05578925335664,544.0755563675083 433.24182688728735,554.3538361157498 422.141851070037,543.2538602984995" fill="#6E8798" opacity="0.060"/><line x1="432.4201308182785" y1="518.4398979324301" x2="422.141851070037" y2="543.2538602984995" stroke="#5E7284" stroke-opacity="0.45" stroke-width="0.7813364166802169"/><polygon points="458.05578925335664,544.0755563675083 458.0557892533567,580.3298522067602 433.24182688728735,570.0515724585186 433.24182688728735,554.3538361157498" fill="#6E8798" opacity="0.230"/><line x1="458.05578925335664" y1="544.0755563675083" x2="433.24182688728735" y2="554.3538361157498" stroke="#5E7284" stroke-opacity="0.45" stroke-width="0.7813364166802169"/>
    <polygon points="433.24182688728735,570.0515724585186 422.141851070037,581.151548275769 406.44411472726813,581.151548275769 395.34413891001776,570.0515724585186 395.34413891001776,554.3538361157498 406.44411472726813,543.2538602984995 422.141851070037,543.2538602984995 433.24182688728735,554.3538361157498" fill="url(#table-cool)"/>
    <polygon points="433.24182688728735,570.0515724585186 422.141851070037,581.151548275769 406.44411472726813,581.151548275769 395.34413891001776,570.0515724585186 395.34413891001776,554.3538361157498 406.44411472726813,543.2538602984995 422.141851070037,543.2538602984995 433.24182688728735,554.3538361157498" fill="none" stroke="#5E7284" stroke-opacity="0.55" stroke-width="0.9376037000162603"/>
    <circle cx="414.29298289865255" cy="562.2027042871342" r="47.368520261238146" fill="none" stroke="#526676" stroke-opacity="0.5" stroke-width="0.7813364166802169"/>
    <circle cx="414.29298289865255" cy="562.2027042871342" r="48.833526042513554" fill="none" stroke="#63788A" stroke-opacity="0.6" stroke-width="1.2501382666883472"/>
    <path d="M 391.8295609190963 537.7859412658775 l 14.650057812754065 7.8133641668021685" stroke="#FFFFFF" stroke-opacity="0.95"
          stroke-width="1.8752074000325205" stroke-linecap="round"/>
  </g><ellipse cx="495.39227286867055" cy="580.2983169676941" rx="45.85259016351029" ry="14.847505386279524" fill="#6B6153" opacity="0.18" filter="url(#soft)"/>
  <g>
    <polygon points="456.96343539829996,511.73777738987394 507.61963024560663,511.73777738987394 516.3534569434181,520.4716040876855 516.3534569434181,592.0889830097395 507.61963024560663,600.8228097075511 456.96343539829996,600.8228097075511 448.2296087004885,592.0889830097395 448.2296087004885,520.4716040876855" fill="url(#stone-cool)"/>
    <polygon points="456.96343539829996,511.73777738987394 507.61963024560663,511.73777738987394 516.3534569434181,520.4716040876855 516.3534569434181,592.0889830097395 507.61963024560663,600.8228097075511 456.96343539829996,600.8228097075511 448.2296087004885,592.0889830097395 448.2296087004885,520.4716040876855" fill="#5F7280" opacity="0.07"/>
    <polygon points="462.5356168315037,521.5371309448184 502.0474488124029,521.5371309448184 508.85983363669584,528.3495157691113 508.85983363669584,584.2110713283137 502.0474488124029,591.0234561526066 462.5356168315037,591.0234561526066 455.72323200721075,584.2110713283137 455.72323200721075,528.3495157691113" fill="#FFFFFF" opacity="0.07"
              stroke="#7C8E9B" stroke-opacity="0.34" stroke-width="0.6812384824292959"/><polygon points="468.10779826470747,531.336484499763 496.4752673791991,531.336484499763 501.36621032997357,536.2274274505373 501.36621032997357,576.3331596468877 496.4752673791991,581.2241025976621 468.10779826470747,581.2241025976621 463.216855313933,576.3331596468877 463.216855313933,536.2274274505373" fill="#FFFFFF" opacity="0.13"
              stroke="#7C8E9B" stroke-opacity="0.28" stroke-width="0.6812384824292959"/><line x1="456.9634353983" y1="511.73777738987394" x2="468.10779826470747" y2="531.336484499763"
           stroke="#7C8E9B" stroke-opacity="0.28" stroke-width="0.6812384824292959"/><line x1="507.6196302456066" y1="511.73777738987394" x2="496.4752673791991" y2="531.336484499763"
           stroke="#7C8E9B" stroke-opacity="0.28" stroke-width="0.6812384824292959"/><line x1="507.6196302456066" y1="600.8228097075511" x2="496.4752673791991" y2="581.2241025976621"
           stroke="#7C8E9B" stroke-opacity="0.28" stroke-width="0.6812384824292959"/><line x1="456.9634353983" y1="600.8228097075511" x2="468.10779826470747" y2="581.2241025976621"
           stroke="#7C8E9B" stroke-opacity="0.28" stroke-width="0.6812384824292959"/>
    <polygon points="468.10779826470747,531.336484499763 496.4752673791991,531.336484499763 501.36621032997357,536.2274274505373 501.36621032997357,576.3331596468877 496.4752673791991,581.2241025976621 468.10779826470747,581.2241025976621 463.216855313933,576.3331596468877 463.216855313933,536.2274274505373" fill="url(#table-cool)"/>
    <polygon points="456.96343539829996,511.73777738987394 507.61963024560663,511.73777738987394 516.3534569434181,520.4716040876855 516.3534569434181,592.0889830097395 507.61963024560663,600.8228097075511 456.96343539829996,600.8228097075511 448.2296087004885,592.0889830097395 448.2296087004885,520.4716040876855" fill="none" stroke="#6F818E" stroke-opacity="0.5" stroke-width="1.0899815718868735"/>
    <rect x="466.6230477260795" y="536.6815864388235" width="11.58105420129803" height="5.345101939060629" fill="#FFFFFF" opacity="0.55"
          transform="rotate(-7 482.2915328219533 556.2802935487125)"/>
  </g><ellipse cx="343.98099584222956" cy="512.8790146455001" rx="48.36327020023205" ry="15.660487493408475" fill="#6B6153" opacity="0.18" filter="url(#soft)"/>
  <g transform="rotate(-29.02053446508944 330.1629186421633 487.54587311204523)">
    <ellipse cx="330.1629186421633" cy="487.54587311204523" rx="34.084590426830204" ry="46.06025733355433" fill="url(#stone-cool)"/>
    <polygon points="364.2475090689935,487.54587311204523 359.6810398293861,510.5760017788224 345.51234165951917,499.5215400187694 347.886905664115,487.54587311204523"
             fill="#5F7280" opacity="0.163"/>
            <line x1="364.2475090689935" y1="487.54587311204523" x2="347.886905664115" y2="487.54587311204523" stroke="#7C8E9B" stroke-opacity="0.26" stroke-width="0.7498609893902645"/><polygon points="359.6810398293861,510.5760017788224 347.2052138555784,527.4352260677517 339.02491215313916,508.28833664901265 345.51234165951917,499.5215400187694"
             fill="#5F7280" opacity="0.180"/>
            <line x1="359.6810398293861" y1="510.5760017788224" x2="345.51234165951917" y2="499.5215400187694" stroke="#7C8E9B" stroke-opacity="0.26" stroke-width="0.7498609893902645"/><polygon points="347.2052138555784,527.4352260677517 330.1629186421633,533.6061304455995 330.1629186421633,511.49720692549346 339.02491215313916,508.28833664901265"
             fill="#5F7280" opacity="0.163"/>
            <line x1="347.2052138555784" y1="527.4352260677517" x2="339.02491215313916" y2="508.28833664901265" stroke="#7C8E9B" stroke-opacity="0.26" stroke-width="0.7498609893902645"/><polygon points="330.1629186421633,533.6061304455995 313.12062342874816,527.4352260677517 321.30092513118746,508.28833664901265 330.1629186421633,511.49720692549346"
             fill="#5F7280" opacity="0.115"/>
            <line x1="330.1629186421633" y1="533.6061304455995" x2="330.1629186421633" y2="511.49720692549346" stroke="#7C8E9B" stroke-opacity="0.26" stroke-width="0.7498609893902645"/><polygon points="313.12062342874816,527.4352260677517 300.64479745494043,510.5760017788224 314.8134956248074,499.5215400187694 321.30092513118746,508.28833664901265"
             fill="#FFFFFF" opacity="0.050"/>
            <line x1="313.12062342874816" y1="527.4352260677517" x2="321.30092513118746" y2="508.28833664901265" stroke="#7C8E9B" stroke-opacity="0.26" stroke-width="0.7498609893902645"/><polygon points="300.64479745494043,510.5760017788224 296.07832821533304,487.54587311204523 312.4389316202116,487.54587311204523 314.8134956248074,499.5215400187694"
             fill="#FFFFFF" opacity="0.115"/>
            <line x1="300.64479745494043" y1="510.5760017788224" x2="314.8134956248074" y2="499.5215400187694" stroke="#7C8E9B" stroke-opacity="0.26" stroke-width="0.7498609893902645"/><polygon points="296.07832821533304,487.54587311204523 300.64479745494043,464.51574444526807 314.8134956248074,475.5702062053211 312.4389316202116,487.54587311204523"
             fill="#FFFFFF" opacity="0.163"/>
            <line x1="296.07832821533304" y1="487.54587311204523" x2="312.4389316202116" y2="487.54587311204523" stroke="#7C8E9B" stroke-opacity="0.26" stroke-width="0.7498609893902645"/><polygon points="300.64479745494043,464.51574444526807 313.12062342874816,447.6565201563387 321.3009251311874,466.8034095750778 314.8134956248074,475.5702062053211"
             fill="#FFFFFF" opacity="0.180"/>
            <line x1="300.64479745494043" y1="464.51574444526807" x2="314.8134956248074" y2="475.5702062053211" stroke="#7C8E9B" stroke-opacity="0.26" stroke-width="0.7498609893902645"/><polygon points="313.12062342874816,447.6565201563387 330.1629186421633,441.4856157784909 330.1629186421633,463.594539298597 321.3009251311874,466.8034095750778"
             fill="#FFFFFF" opacity="0.163"/>
            <line x1="313.12062342874816" y1="447.6565201563387" x2="321.3009251311874" y2="466.8034095750778" stroke="#7C8E9B" stroke-opacity="0.26" stroke-width="0.7498609893902645"/><polygon points="330.1629186421633,441.4856157784909 347.2052138555784,447.6565201563387 339.02491215313916,466.8034095750778 330.1629186421633,463.594539298597"
             fill="#FFFFFF" opacity="0.115"/>
            <line x1="330.1629186421633" y1="441.4856157784909" x2="330.1629186421633" y2="463.594539298597" stroke="#7C8E9B" stroke-opacity="0.26" stroke-width="0.7498609893902645"/><polygon points="347.2052138555784,447.6565201563387 359.6810398293861,464.51574444526807 345.51234165951917,475.5702062053211 339.02491215313916,466.8034095750778"
             fill="#FFFFFF" opacity="0.050"/>
            <line x1="347.2052138555784" y1="447.6565201563387" x2="339.02491215313916" y2="466.8034095750778" stroke="#7C8E9B" stroke-opacity="0.26" stroke-width="0.7498609893902645"/><polygon points="359.6810398293861,464.51574444526807 364.2475090689935,487.54587311204523 347.886905664115,487.54587311204523 345.51234165951917,475.5702062053211"
             fill="#5F7280" opacity="0.115"/>
            <line x1="359.6810398293861" y1="464.51574444526807" x2="345.51234165951917" y2="475.5702062053211" stroke="#7C8E9B" stroke-opacity="0.26" stroke-width="0.7498609893902645"/>
    <ellipse cx="330.1629186421633" cy="487.54587311204523" rx="17.723987021951707" ry="23.951333813448255" fill="url(#table-cool)"
             stroke="#7C8E9B" stroke-opacity="0.4" stroke-width="0.9748192862073438"/>
    <ellipse cx="330.1629186421633" cy="487.54587311204523" rx="34.084590426830204" ry="46.06025733355433" fill="none" stroke="#6F818E" stroke-opacity="0.5" stroke-width="1.499721978780529"/>
    <ellipse cx="319.93754151411423" cy="469.1217701786235" rx="5.794380372561135" ry="4.14542316001989" fill="#FFFFFF" opacity="0.75"
             transform="rotate(-32 319.93754151411423 469.1217701786235)"/>
  </g><ellipse cx="366.73960546105354" cy="630.541388037337" rx="55.581883647266785" ry="17.997943276257818" fill="#6B6153" opacity="0.18" filter="url(#soft)"/>
  <g>
    <circle cx="350.8590672761202" cy="601.4270680316258" r="52.93512728311122" fill="url(#stone-cool)"/>
    <polygon points="398.29757750443406,621.0767423469682 370.5087415914626,648.8655782599396 359.36717368070146,621.9674539036793 371.3994531481736,609.935174436207" fill="#6E8798" opacity="0.300"/><line x1="398.29757750443406" y1="621.0767423469682" x2="371.3994531481736" y2="609.935174436207" stroke="#5E7284" stroke-opacity="0.45" stroke-width="0.8469620365297795"/><polygon points="370.5087415914626,648.8655782599396 331.2093929607778,648.8655782599396 342.350960871539,621.9674539036793 359.36717368070146,621.9674539036793" fill="#6E8798" opacity="0.230"/><line x1="370.5087415914626" y1="648.8655782599396" x2="359.36717368070146" y2="621.9674539036793" stroke="#5E7284" stroke-opacity="0.45" stroke-width="0.8469620365297795"/><polygon points="331.2093929607778,648.8655782599396 303.4205570478063,621.0767423469682 330.31868140406675,609.935174436207 342.350960871539,621.9674539036793" fill="#FFFFFF" opacity="0.160"/><line x1="331.2093929607778" y1="648.8655782599396" x2="342.350960871539" y2="621.9674539036793" stroke="#5E7284" stroke-opacity="0.45" stroke-width="0.8469620365297795"/><polygon points="303.4205570478063,621.0767423469682 303.4205570478063,581.7773937162834 330.31868140406675,592.9189616270446 330.31868140406675,609.935174436207" fill="#FFFFFF" opacity="0.514"/><line x1="303.4205570478063" y1="621.0767423469682" x2="330.31868140406675" y2="609.935174436207" stroke="#5E7284" stroke-opacity="0.45" stroke-width="0.8469620365297795"/><polygon points="303.4205570478063,581.7773937162834 331.2093929607778,553.988557803312 342.3509608715389,580.8866821595724 330.31868140406675,592.9189616270446" fill="#FFFFFF" opacity="0.660"/><line x1="303.4205570478063" y1="581.7773937162834" x2="330.31868140406675" y2="592.9189616270446" stroke="#5E7284" stroke-opacity="0.45" stroke-width="0.8469620365297795"/><polygon points="331.2093929607778,553.988557803312 370.5087415914626,553.988557803312 359.36717368070146,580.8866821595724 342.3509608715389,580.8866821595724" fill="#FFFFFF" opacity="0.514"/><line x1="331.2093929607778" y1="553.988557803312" x2="342.3509608715389" y2="580.8866821595724" stroke="#5E7284" stroke-opacity="0.45" stroke-width="0.8469620365297795"/><polygon points="370.5087415914626,553.988557803312 398.29757750443406,581.7773937162834 371.3994531481736,592.9189616270446 359.36717368070146,580.8866821595724" fill="#6E8798" opacity="0.060"/><line x1="370.5087415914626" y1="553.988557803312" x2="359.36717368070146" y2="580.8866821595724" stroke="#5E7284" stroke-opacity="0.45" stroke-width="0.8469620365297795"/><polygon points="398.29757750443406,581.7773937162834 398.29757750443406,621.0767423469682 371.3994531481736,609.935174436207 371.3994531481736,592.9189616270446" fill="#6E8798" opacity="0.230"/><line x1="398.29757750443406" y1="581.7773937162834" x2="371.3994531481736" y2="592.9189616270446" stroke="#5E7284" stroke-opacity="0.45" stroke-width="0.8469620365297795"/>
    <polygon points="371.3994531481736,609.935174436207 359.36717368070146,621.9674539036793 342.350960871539,621.9674539036793 330.31868140406675,609.935174436207 330.31868140406675,592.9189616270446 342.3509608715389,580.8866821595724 359.36717368070146,580.8866821595724 371.3994531481736,592.9189616270446" fill="url(#table-cool)"/>
    <polygon points="371.3994531481736,609.935174436207 359.36717368070146,621.9674539036793 342.350960871539,621.9674539036793 330.31868140406675,609.935174436207 330.31868140406675,592.9189616270446 342.3509608715389,580.8866821595724 359.36717368070146,580.8866821595724 371.3994531481736,592.9189616270446" fill="none" stroke="#5E7284" stroke-opacity="0.55" stroke-width="1.0163544438357355"/>
    <circle cx="350.8590672761202" cy="601.4270680316258" r="51.347073464617885" fill="none" stroke="#526676" stroke-opacity="0.5" stroke-width="0.8469620365297795"/>
    <circle cx="350.8590672761202" cy="601.4270680316258" r="52.93512728311122" fill="none" stroke="#63788A" stroke-opacity="0.6" stroke-width="1.3551392584476474"/>
    <path d="M 326.508908725889 574.9595043900703 l 15.880538184933366 8.469620365297796" stroke="#FFFFFF" stroke-opacity="0.95"
          stroke-width="2.032708887671471" stroke-linecap="round"/>
  </g><ellipse cx="431.59608542117473" cy="638.6494196153265" rx="62.04370216454566" ry="20.090341653281452" fill="#6B6153" opacity="0.18" filter="url(#soft)"/>
  <g>
    <polygon points="379.5975540832698,545.8793125692915 448.1410726650536,545.8793125692915 459.95892069639564,557.6971606006335 459.95892069639564,654.6035144576382 448.1410726650536,666.4213624889802 379.5975540832698,666.4213624889802 367.7797060519278,654.6035144576382 367.7797060519278,557.6971606006335" fill="url(#stone-cool)"/>
    <polygon points="379.5975540832698,545.8793125692915 448.1410726650536,545.8793125692915 459.95892069639564,557.6971606006335 459.95892069639564,654.6035144576382 448.1410726650536,666.4213624889802 379.5975540832698,666.4213624889802 367.7797060519278,654.6035144576382 367.7797060519278,557.6971606006335" fill="#5F7280" opacity="0.07"/>
    <polygon points="387.13734112726604,559.1389380604572 440.6012856210574,559.1389380604572 449.81920708550416,568.356859524904 449.81920708550416,643.9438155333677 440.6012856210574,653.1617369978145 387.13734112726604,653.1617369978145 377.9194196628193,643.9438155333677 377.9194196628193,568.356859524904" fill="#FFFFFF" opacity="0.07"
              stroke="#7C8E9B" stroke-opacity="0.34" stroke-width="0.9217921464446783"/><polygon points="394.6771281712622,572.398563551623 433.06149857706123,572.398563551623 439.67949347461274,579.0165584491746 439.67949347461274,633.2841166090972 433.06149857706123,639.9021115066487 394.6771281712622,639.9021115066487 388.0591332737107,633.2841166090972 388.0591332737107,579.0165584491746" fill="#FFFFFF" opacity="0.13"
              stroke="#7C8E9B" stroke-opacity="0.28" stroke-width="0.9217921464446783"/><line x1="379.5975540832698" y1="545.8793125692915" x2="394.67712817126227" y2="572.398563551623"
           stroke="#7C8E9B" stroke-opacity="0.28" stroke-width="0.9217921464446783"/><line x1="448.1410726650536" y1="545.8793125692915" x2="433.0614985770612" y2="572.398563551623"
           stroke="#7C8E9B" stroke-opacity="0.28" stroke-width="0.9217921464446783"/><line x1="448.1410726650536" y1="666.4213624889802" x2="433.0614985770612" y2="639.9021115066487"
           stroke="#7C8E9B" stroke-opacity="0.28" stroke-width="0.9217921464446783"/><line x1="379.5975540832698" y1="666.4213624889802" x2="394.67712817126227" y2="639.9021115066487"
           stroke="#7C8E9B" stroke-opacity="0.28" stroke-width="0.9217921464446783"/>
    <polygon points="394.6771281712622,572.398563551623 433.06149857706123,572.398563551623 439.67949347461274,579.0165584491746 439.67949347461274,633.2841166090972 433.06149857706123,639.9021115066487 394.6771281712622,639.9021115066487 388.0591332737107,633.2841166090972 388.0591332737107,579.0165584491746" fill="url(#table-cool)"/>
    <polygon points="379.5975540832698,545.8793125692915 448.1410726650536,545.8793125692915 459.95892069639564,557.6971606006335 459.95892069639564,654.6035144576382 448.1410726650536,666.4213624889802 379.5975540832698,666.4213624889802 367.7797060519278,654.6035144576382 367.7797060519278,557.6971606006335" fill="none" stroke="#6F818E" stroke-opacity="0.5" stroke-width="1.4748674343114854"/>
    <rect x="392.6680940059341" y="579.6310865468043" width="15.670466489559534" height="7.232522995181323" fill="#FFFFFF" opacity="0.55"
          transform="rotate(-7 413.8693133741617 606.1503375291359)"/>
  </g>
  <rect width="880" height="1100" fill="url(#vignette)"/>
  <rect width="880" height="1100" filter="url(#grain)" opacity="0.05" style="mix-blend-mode:overlay"/>
</svg>